<svg xmlns='http://www.w3.org/2000/svg' viewBox="0 0 684.978 316.457" data-pikchr-date="20250321215505" style="font-size:initial;font-family:sans-serif;background-color:white">
<polygon points="74.16,199.097 62.64,203.417 62.64,194.777" style="fill:currentColor"/>
<path d="M2.16,199.097L68.4,199.097"  style="fill:none;stroke-width:2.16;stroke:currentColor;" />
<path d="M81.66,224.297L200.983,224.297A7.5 7.5 0 0 0 208.483 216.797L208.483,181.397A7.5 7.5 0 0 0 200.983 173.897L81.66,173.897A7.5 7.5 0 0 0 74.16 181.397L74.16,216.797A7.5 7.5 0 0 0 81.66 224.297Z"  style="fill:none;stroke-width:2.16;stroke:currentColor;" />
<text x="141.322" y="189.017" text-anchor="middle" font-family="monospace" fill="currentColor" dominant-baseline="central">mdsection.awk</text>
<text x="141.322" y="209.177" text-anchor="middle" fill="currentColor" dominant-baseline="central">Preprocessor</text>
<polygon points="280.483,199.097 268.963,203.417 268.963,194.777" style="fill:currentColor"/>
<path d="M208.483,199.097L274.723,199.097"  style="fill:none;stroke-width:2.16;stroke:currentColor;" />
<path d="M287.983,224.297L407.306,224.297A7.5 7.5 0 0 0 414.806 216.797L414.806,181.397A7.5 7.5 0 0 0 407.306 173.897L287.983,173.897A7.5 7.5 0 0 0 280.483 181.397L280.483,216.797A7.5 7.5 0 0 0 287.983 224.297Z"  style="fill:none;stroke-width:2.16;stroke:currentColor;" />
<text x="347.645" y="189.017" text-anchor="middle" font-family="monospace" fill="currentColor" dominant-baseline="central">pikchr</text>
<text x="347.645" y="209.177" text-anchor="middle" fill="currentColor" dominant-baseline="central">Preprocessor</text>
<polygon points="486.806,199.097 475.286,203.417 475.286,194.777" style="fill:currentColor"/>
<path d="M414.806,199.097L481.046,199.097"  style="fill:none;stroke-width:2.16;stroke:currentColor;" />
<path d="M494.306,234.377L580.567,234.377A7.5 7.5 0 0 0 588.067 226.877L588.067,171.317A7.5 7.5 0 0 0 580.567 163.817L494.306,163.817A7.5 7.5 0 0 0 486.806 171.317L486.806,226.877A7.5 7.5 0 0 0 494.306 234.377Z"  style="fill:none;stroke-width:2.16;stroke:currentColor;" />
<text x="537.437" y="178.937" text-anchor="middle" font-weight="bold" fill="currentColor" dominant-baseline="central">Any</text>
<text x="537.437" y="199.097" text-anchor="middle" fill="currentColor" dominant-baseline="central">Markdown</text>
<text x="537.437" y="219.257" text-anchor="middle" fill="currentColor" dominant-baseline="central">Formatter</text>
<polygon points="660.067,199.097 648.547,203.417 648.547,194.777" style="fill:currentColor"/>
<path d="M588.067,199.097L654.307,199.097"  style="fill:none;stroke-width:2.16;stroke:currentColor;" />
<text x="32.2328" y="187.744" text-anchor="start" fill="currentColor" transform="rotate(-45 32.2328,197.824)" dominant-baseline="central">Slide Delims + Markdown + Pikchr</text>
<text x="238.556" y="187.744" text-anchor="start" fill="currentColor" transform="rotate(-45 238.556,197.824)" dominant-baseline="central">HTML + Markdown + Pikchr</text>
<text x="444.879" y="187.744" text-anchor="start" fill="currentColor" transform="rotate(-45 444.879,197.824)" dominant-baseline="central">HTML + Markdown + SVG</text>
<text x="618.14" y="187.744" text-anchor="start" fill="currentColor" transform="rotate(-45 618.14,197.824)" dominant-baseline="central">HTML + SVG</text>
<polygon points="624.067,199.097 628.387,210.617 619.747,210.617" style="fill:currentColor"/>
<path d="M624.067,204.857L624.067,289.097"  style="fill:none;stroke-width:2.16;stroke:currentColor;" />
<text x="624.067" y="304.217" text-anchor="middle" font-family="monospace" fill="currentColor" dominant-baseline="central">deck.css</text>
</svg>

