<svg xmlns='http://www.w3.org/2000/svg' viewBox="0 0 729.943 297.14" data-pikchr-date="20250321215505" style="font-size:initial;font-family:sans-serif;background-color:white">
<polygon points="74.16,174.74 62.64,179.06 62.64,170.42" style="fill:currentColor"/>
<path d="M2.16,174.74L68.4,174.74"  style="fill:none;stroke-width:2.16;stroke:currentColor;" />
<path d="M81.66,199.94L200.983,199.94A7.5 7.5 0 0 0 208.483 192.44L208.483,157.04A7.5 7.5 0 0 0 200.983 149.54L81.66,149.54A7.5 7.5 0 0 0 74.16 157.04L74.16,192.44A7.5 7.5 0 0 0 81.66 199.94Z"  style="fill:none;stroke-width:2.16;stroke:currentColor;" />
<text x="141.322" y="164.66" text-anchor="middle" font-family="monospace" fill="currentColor" dominant-baseline="central">mdsection.awk</text>
<text x="141.322" y="184.82" text-anchor="middle" fill="currentColor" dominant-baseline="central">Preprocessor</text>
<polygon points="280.483,174.74 268.963,179.06 268.963,170.42" style="fill:currentColor"/>
<path d="M208.483,174.74L274.723,174.74"  style="fill:none;stroke-width:2.16;stroke:currentColor;" />
<path d="M287.983,199.94L407.306,199.94A7.5 7.5 0 0 0 414.806 192.44L414.806,157.04A7.5 7.5 0 0 0 407.306 149.54L287.983,149.54A7.5 7.5 0 0 0 280.483 157.04L280.483,192.44A7.5 7.5 0 0 0 287.983 199.94Z"  style="fill:none;stroke-width:2.16;stroke:currentColor;" />
<text x="347.645" y="164.66" text-anchor="middle" font-family="monospace" fill="currentColor" dominant-baseline="central">pikchr</text>
<text x="347.645" y="184.82" text-anchor="middle" fill="currentColor" dominant-baseline="central">Preprocessor</text>
<polygon points="486.806,174.74 475.286,179.06 475.286,170.42" style="fill:currentColor"/>
<path d="M414.806,174.74L481.046,174.74"  style="fill:none;stroke-width:2.16;stroke:currentColor;" />
<path d="M494.306,210.02L580.567,210.02A7.5 7.5 0 0 0 588.067 202.52L588.067,146.96A7.5 7.5 0 0 0 580.567 139.46L494.306,139.46A7.5 7.5 0 0 0 486.806 146.96L486.806,202.52A7.5 7.5 0 0 0 494.306 210.02Z"  style="fill:none;stroke-width:2.16;stroke:currentColor;" />
<text x="537.437" y="154.58" text-anchor="middle" font-weight="bold" fill="currentColor" dominant-baseline="central">Any</text>
<text x="537.437" y="174.74" text-anchor="middle" fill="currentColor" dominant-baseline="central">Markdown</text>
<text x="537.437" y="194.9" text-anchor="middle" fill="currentColor" dominant-baseline="central">Formatter</text>
<polygon points="660.067,174.74 648.547,179.06 648.547,170.42" style="fill:currentColor"/>
<path d="M588.067,174.74L654.307,174.74"  style="fill:none;stroke-width:2.16;stroke:currentColor;" />
<text x="32.2328" y="163.388" text-anchor="start" fill="currentColor" transform="rotate(-45 32.2328,173.468)" dominant-baseline="central">Sections + Markdown + Pikchr</text>
<text x="238.556" y="163.388" text-anchor="start" fill="currentColor" transform="rotate(-45 238.556,173.468)" dominant-baseline="central">HTML + Markdown + Pikchr</text>
<text x="444.879" y="163.388" text-anchor="start" fill="currentColor" transform="rotate(-45 444.879,173.468)" dominant-baseline="central">HTML + Markdown + SVG</text>
<text x="618.14" y="163.388" text-anchor="start" fill="currentColor" transform="rotate(-45 618.14,173.468)" dominant-baseline="central">HTML + SVG Output</text>
<polygon points="624.067,174.74 628.387,186.26 619.747,186.26" style="fill:currentColor"/>
<path d="M624.067,180.5L624.067,264.74"  style="fill:none;stroke-width:2.16;stroke:currentColor;" />
<text x="624.067" y="279.86" text-anchor="middle" font-family="monospace" fill="currentColor" dominant-baseline="central">deck.css</text>
</svg>

